<svg xmlns="http://www.w3.org/2000/svg" width="20" height="20" viewBox="0 0 20 20" fill="none">
  <path d="M10.017 1.6665C5.17533 1.6665 1.66699 5.62244 1.66699 10.0124C1.66699 11.4145 2.07533 12.8583 2.79199 14.1769C2.92533 14.3939 2.94199 14.6693 2.85033 14.9281L2.29199 16.7975C2.16699 17.2482 2.55033 17.582 2.97533 17.4485L4.65866 16.9478C5.11699 16.7975 5.47533 16.9895 5.90033 17.2482C7.11699 17.966 8.63366 18.3332 10.0003 18.3332C14.1337 18.3332 18.3337 15.1367 18.3337 9.98732C18.3337 5.54733 14.7503 1.6665 10.017 1.6665Z" fill="#FF4A5B"/>
  <path fill-rule="evenodd" clip-rule="evenodd" d="M9.98354 11.089C9.39187 11.0807 8.91687 10.605 8.91687 10.0124C8.91687 9.42821 9.4002 8.94415 9.98354 8.9525C10.5752 8.9525 11.0502 9.42821 11.0502 10.0208C11.0502 10.605 10.5752 11.089 9.98354 11.089ZM13.8252 11.089C13.2335 11.089 12.7585 10.605 12.7585 10.0208C12.7585 9.42821 13.2335 8.9525 13.8252 8.9525C14.4169 8.9525 14.8919 9.42821 14.8919 10.0208C14.8919 10.605 14.4169 11.089 13.8252 11.089ZM5.0752 10.0208C5.0752 10.605 5.55853 11.0891 6.14186 11.0891C6.73353 11.0807 7.20853 10.605 7.20853 10.0208C7.20853 9.42823 6.73353 8.95251 6.14186 8.95251C5.5502 8.95251 5.0752 9.42823 5.0752 10.0208Z" fill="white"/>
</svg>